{
  "accessors": [
    {
      "bufferView": 2,
      "componentType": 5126,
      "count": 89,
      "max": [
        2.8228037357330322,
        1.58450448513031,
        2.7845640182495117
      ],
      "min": [
        -2.8212952613830566,
        -0.026501420885324478,
        -2.7843122482299805
      ],
      "type": "VEC3"
    },
    {
      "bufferView": 2,
      "byteOffset": 1068,
      "componentType": 5126,
      "count": 89,
      "max": [
        0.5919919013977051,
        0.9999271631240845,
        0.6024795174598694
      ],
      "min": [
        -0.6080492734909058,
        0.7841482162475586,
        -0.6091713905334473
      ],
      "type": "VEC3"
    },
    {
      "bufferView": 3,
      "componentType": 5126,
      "count": 89,
      "max": [
        0.02965093031525612,
        0.5946881771087646,
        -0.7428762912750244,
        1.0
      ],
      "min": [
        -0.5825005173683167,
        -0.6097363829612732,
        -0.9664681553840637,
        1.0
      ],
      "type": "VEC4"
    },
    {
      "bufferView": 1,
      "componentType": 5126,
      "count": 89,
      "max": [
        3.5026071071624756,
        3.6431174278259277
      ],
      "min": [
        -2.541175365447998,
        -2.6431174278259277
      ],
      "type": "VEC2"
    },
    {
      "bufferView": 1,
      "byteOffset": 712,
      "componentType": 5126,
      "count": 89,
      "max": [
        3.5026071071624756,
        3.6431174278259277
      ],
      "min": [
        -2.541175365447998,
        -2.6431174278259277
      ],
      "type": "VEC2"
    },
    {
      "bufferView": 0,
      "componentType": 5125,
      "count": 480,
      "type": "SCALAR"
    }
  ],
  "asset": {
    "extras": {
      "author": "packy films (https://sketchfab.com/packyfilms)",
      "license": "CC-BY-4.0 (http://creativecommons.org/licenses/by/4.0/)",
      "source": "https://sketchfab.com/3d-models/pirate-gold-pile-3d407603ff6645d180c0607d5fdaf71c",
      "title": "pirate gold pile"
    },
    "generator": "Sketchfab-15.26.0",
    "version": "2.0"
  },
  "bufferViews": [
    {
      "buffer": 0,
      "byteLength": 1920,
      "name": "floatBufferViews",
      "target": 34963
    },
    {
      "buffer": 0,
      "byteLength": 1424,
      "byteOffset": 1920,
      "byteStride": 8,
      "name": "floatBufferViews",
      "target": 34962
    },
    {
      "buffer": 0,
      "byteLength": 2136,
      "byteOffset": 3344,
      "byteStride": 12,
      "name": "floatBufferViews",
      "target": 34962
    },
    {
      "buffer": 0,
      "byteLength": 1424,
      "byteOffset": 5480,
      "byteStride": 16,
      "name": "floatBufferViews",
      "target": 34962
    }
  ],
  "buffers": [
    {
      "byteLength": 6904,
      "uri": "scene.bin"
    }
  ],
  "images": [
    {
      "uri": "textures/siimon_gold_pile_seamless_1_baseColor.png"
    },
    {
      "uri": "textures/siimon_gold_pile_seamless_1_normal.png"
    }
  ],
  "materials": [
    {
      "doubleSided": true,
      "name": "siimon_gold_pile_seamless_1",
      "normalTexture": {
        "index": 1
      },
      "pbrMetallicRoughness": {
        "baseColorTexture": {
          "index": 0
        },
        "metallicFactor": 0.0,
        "roughnessFactor": 0.5
      }
    }
  ],
  "meshes": [
    {
      "name": "Object_0",
      "primitives": [
        {
          "attributes": {
            "NORMAL": 1,
            "POSITION": 0,
            "TANGENT": 2,
            "TEXCOORD_0": 3,
            "TEXCOORD_1": 4
          },
          "indices": 5,
          "material": 0,
          "mode": 4
        }
      ]
    }
  ],
  "nodes": [
    {
      "children": [
        1
      ],
      "matrix": [
        1.0,
        0.0,
        0.0,
        0.0,
        0.0,
        2.220446049250313e-16,
        -1.0,
        0.0,
        0.0,
        1.0,
        2.220446049250313e-16,
        0.0,
        0.0,
        0.0,
        0.0,
        1.0
      ],
      "name": "Sketchfab_model"
    },
    {
      "children": [
        2
      ],
      "name": "root"
    },
    {
      "children": [
        3
      ],
      "matrix": [
        1.0,
        0.0,
        0.0,
        0.0,
        0.0,
        2.220446049250313e-16,
        1.0,
        0.0,
        0.0,
        -1.0,
        2.220446049250313e-16,
        0.0,
        0.0,
        0.0,
        0.0,
        1.0
      ],
      "name": "GLTF_SceneRootNode"
    },
    {
      "children": [
        4
      ],
      "name": "gold_pile_0"
    },
    {
      "mesh": 0,
      "name": "Object_4"
    }
  ],
  "samplers": [
    {
      "magFilter": 9729,
      "minFilter": 9987,
      "wrapS": 10497,
      "wrapT": 10497
    }
  ],
  "scene": 0,
  "scenes": [
    {
      "name": "Sketchfab_Scene",
      "nodes": [
        0
      ]
    }
  ],
  "textures": [
    {
      "sampler": 0,
      "source": 0
    },
    {
      "sampler": 0,
      "source": 1
    }
  ]
}
